<?xml version="1.0" encoding="UTF-8" standalone="no"?>
<!DOCTYPE svg PUBLIC "-//W3C//DTD SVG 1.1//EN"
 "http://www.w3.org/Graphics/SVG/1.1/DTD/svg11.dtd">
<!-- Generated by graphviz version 2.50.0 (0)
 -->
<!-- Title: pipeline Pages: 1 -->
<svg width="581pt" height="44pt"
 viewBox="0.00 0.00 580.50 44.00" xmlns="http://www.w3.org/2000/svg" xmlns:xlink="http://www.w3.org/1999/xlink">
<g id="graph0" class="graph" transform="scale(1 1) rotate(0) translate(4 40)">
<title>pipeline</title>
<polygon fill="white" stroke="transparent" points="-4,4 -4,-40 576.5,-40 576.5,4 -4,4"/>
<!-- elaborator -->
<g id="node1" class="node">
<title>elaborator</title>
<text text-anchor="middle" x="124" y="-15.2" font-family="Fira Code" font-size="11.00">elaborator</text>
</g>
<!-- dhexp -->
<g id="node3" class="node">
<title>dhexp</title>
<polygon fill="none" stroke="black" points="248,-36 184,-36 184,0 248,0 248,-36"/>
<text text-anchor="middle" x="216" y="-15.2" font-family="Fira Code" font-size="11.00">DHExp.t</text>
</g>
<!-- elaborator&#45;&gt;dhexp -->
<g id="edge2" class="edge">
<title>elaborator&#45;&gt;dhexp</title>
<path fill="none" stroke="black" d="M166.05,-18C170.35,-18 174.65,-18 178.95,-18"/>
<polygon fill="black" stroke="black" points="184,-18 179,-20.25 181.5,-18 179,-18 179,-18 179,-18 181.5,-18 179,-15.75 184,-18 184,-18"/>
</g>
<!-- uhexp -->
<g id="node2" class="node">
<title>uhexp</title>
<polygon fill="none" stroke="black" points="64,-36 0,-36 0,0 64,0 64,-36"/>
<text text-anchor="middle" x="32" y="-15.2" font-family="Fira Code" font-size="11.00">UHExp.t</text>
</g>
<!-- uhexp&#45;&gt;elaborator -->
<g id="edge1" class="edge">
<title>uhexp&#45;&gt;elaborator</title>
<path fill="none" stroke="black" d="M64.34,-18C68.39,-18 72.43,-18 76.47,-18"/>
<polygon fill="black" stroke="black" points="81.59,-18 76.59,-20.25 79.09,-18 76.59,-18 76.59,-18 76.59,-18 79.09,-18 76.59,-15.75 81.59,-18 81.59,-18"/>
</g>
<!-- translator -->
<g id="node4" class="node">
<title>translator</title>
<text text-anchor="middle" x="308" y="-15.2" font-family="Fira Code" font-size="11.00">translator</text>
</g>
<!-- dhexp&#45;&gt;translator -->
<g id="edge5" class="edge">
<title>dhexp&#45;&gt;translator</title>
<path fill="none" stroke="black" d="M248.34,-18C252.39,-18 256.43,-18 260.47,-18"/>
<polygon fill="black" stroke="black" points="265.59,-18 260.59,-20.25 263.09,-18 260.59,-18 260.59,-18 260.59,-18 263.09,-18 260.59,-15.75 265.59,-18 265.59,-18"/>
</g>
<!-- grain -->
<g id="node6" class="node">
<title>grain</title>
<polygon fill="none" stroke="black" points="422,-36 368,-36 368,0 422,0 422,-36"/>
<text text-anchor="middle" x="395" y="-15.2" font-family="Fira Code" font-size="11.00">*.gr</text>
</g>
<!-- translator&#45;&gt;grain -->
<g id="edge3" class="edge">
<title>translator&#45;&gt;grain</title>
<path fill="none" stroke="black" d="M350.14,-18C354.25,-18 358.35,-18 362.46,-18"/>
<polygon fill="black" stroke="black" points="367.66,-18 362.66,-20.25 365.16,-18 362.66,-18 362.66,-18 362.66,-18 365.16,-18 362.66,-15.75 367.66,-18 367.66,-18"/>
</g>
<!-- grainc -->
<g id="node5" class="node">
<title>grainc</title>
<text text-anchor="middle" x="469" y="-15.2" font-family="Fira Code" font-size="11.00">grainc</text>
</g>
<!-- wasm -->
<g id="node7" class="node">
<title>wasm</title>
<polygon fill="none" stroke="black" points="572.5,-36 515.5,-36 515.5,0 572.5,0 572.5,-36"/>
<text text-anchor="middle" x="544" y="-15.2" font-family="Fira Code" font-size="11.00">*.wasm</text>
</g>
<!-- grainc&#45;&gt;wasm -->
<g id="edge6" class="edge">
<title>grainc&#45;&gt;wasm</title>
<path fill="none" stroke="black" d="M497.71,-18C501.86,-18 506.02,-18 510.17,-18"/>
<polygon fill="black" stroke="black" points="515.43,-18 510.43,-20.25 512.93,-18 510.43,-18 510.43,-18 510.43,-18 512.93,-18 510.43,-15.75 515.43,-18 515.43,-18"/>
</g>
<!-- grain&#45;&gt;grainc -->
<g id="edge4" class="edge">
<title>grain&#45;&gt;grainc</title>
<path fill="none" stroke="black" d="M422.17,-18C426.55,-18 430.94,-18 435.32,-18"/>
<polygon fill="black" stroke="black" points="440.46,-18 435.46,-20.25 437.96,-18 435.46,-18 435.46,-18 435.46,-18 437.96,-18 435.46,-15.75 440.46,-18 440.46,-18"/>
</g>
</g>
</svg>
