<?xml version="1.0" encoding="UTF-8" standalone="no"?>
<!DOCTYPE svg PUBLIC "-//W3C//DTD SVG 1.1//EN"
 "http://www.w3.org/Graphics/SVG/1.1/DTD/svg11.dtd">
<!-- Generated by graphviz version 3.0.0 (0)
 -->
<!-- Title: pipeline Pages: 1 -->
<svg width="555pt" height="347pt"
 viewBox="0.00 0.00 555.00 347.00" xmlns="http://www.w3.org/2000/svg" xmlns:xlink="http://www.w3.org/1999/xlink">
<g id="graph0" class="graph" transform="scale(1 1) rotate(0) translate(4 343)">
<title>pipeline</title>
<polygon fill="white" stroke="transparent" points="-4,4 -4,-343 551,-343 551,4 -4,4"/>
<text text-anchor="middle" x="273.5" y="-7" font-family="Fira Code" font-size="10.00">hazelc pipeline</text>
<g id="clust1" class="cluster">
<title>cluster_hazelcore</title>
<path fill="#ffffd9" stroke="#ffffd9" d="M20,-260C20,-260 228,-260 228,-260 234,-260 240,-266 240,-272 240,-272 240,-319 240,-319 240,-325 234,-331 228,-331 228,-331 20,-331 20,-331 14,-331 8,-325 8,-319 8,-319 8,-272 8,-272 8,-266 14,-260 20,-260"/>
<text text-anchor="middle" x="124" y="-319" font-family="Fira Code" font-size="10.00" fill="#253494">hazelcore</text>
</g>
<g id="clust2" class="cluster">
<title>cluster_compiler</title>
<path fill="#fff7bc" stroke="#fff7bc" d="M165,-63C165,-63 527,-63 527,-63 533,-63 539,-69 539,-75 539,-75 539,-236 539,-236 539,-242 533,-248 527,-248 527,-248 165,-248 165,-248 159,-248 153,-242 153,-236 153,-236 153,-75 153,-75 153,-69 159,-63 165,-63"/>
<text text-anchor="middle" x="346" y="-70" font-family="Fira Code" font-size="10.00" fill="#662506">compiler</text>
</g>
<g id="clust3" class="cluster">
<title>cluster_middle_end</title>
<path fill="#fee391" stroke="#fff7bc" d="M173,-169C173,-169 489,-169 489,-169 495,-169 501,-175 501,-181 501,-181 501,-228 501,-228 501,-234 495,-240 489,-240 489,-240 173,-240 173,-240 167,-240 161,-234 161,-228 161,-228 161,-181 161,-181 161,-175 167,-169 173,-169"/>
<text text-anchor="middle" x="331" y="-176" font-family="Fira Code" font-size="10.00" fill="#662506">middle&#45;end</text>
</g>
<g id="clust4" class="cluster">
<title>cluster_codegen</title>
<path fill="#fee391" stroke="#fff7bc" d="M173,-90C173,-90 519,-90 519,-90 525,-90 531,-96 531,-102 531,-102 531,-149 531,-149 531,-155 525,-161 519,-161 519,-161 173,-161 173,-161 167,-161 161,-155 161,-149 161,-149 161,-102 161,-102 161,-96 167,-90 173,-90"/>
<text text-anchor="middle" x="346" y="-97" font-family="Fira Code" font-size="10.00" fill="#662506">codegen</text>
</g>
<!-- elaborate -->
<g id="node1" class="node">
<title>elaborate</title>
<text text-anchor="middle" x="124" y="-283.5" font-family="Fira Code" font-size="10.00" fill="#253494">elaborate</text>
</g>
<!-- dhexp -->
<g id="node3" class="node">
<title>dhexp</title>
<polygon fill="#edf8b1" stroke="#edf8b1" points="232,-304 178,-304 178,-268 232,-268 232,-304"/>
<text text-anchor="middle" x="205" y="-283.5" font-family="Fira Code" font-size="10.00" fill="#253494">dhexp</text>
</g>
<!-- elaborate&#45;&gt;dhexp -->
<g id="edge2" class="edge">
<title>elaborate&#45;&gt;dhexp</title>
<path fill="none" stroke="#225ea8" d="M159.75,-286C164.07,-286 168.39,-286 172.71,-286"/>
<polygon fill="#225ea8" stroke="#225ea8" points="177.78,-286 172.78,-288.25 175.28,-286 172.78,-286 172.78,-286 172.78,-286 175.28,-286 172.78,-283.75 177.78,-286 177.78,-286"/>
</g>
<!-- uhexp -->
<g id="node2" class="node">
<title>uhexp</title>
<polygon fill="#edf8b1" stroke="#edf8b1" points="70,-304 16,-304 16,-268 70,-268 70,-304"/>
<text text-anchor="middle" x="43" y="-283.5" font-family="Fira Code" font-size="10.00" fill="#253494">uhexp</text>
</g>
<!-- uhexp&#45;&gt;elaborate -->
<g id="edge1" class="edge">
<title>uhexp&#45;&gt;elaborate</title>
<path fill="none" stroke="#225ea8" d="M70.21,-286C74.54,-286 78.87,-286 83.2,-286"/>
<polygon fill="#225ea8" stroke="#225ea8" points="88.28,-286 83.28,-288.25 85.78,-286 83.28,-286 83.28,-286 83.28,-286 85.78,-286 83.28,-283.75 88.28,-286 88.28,-286"/>
</g>
<!-- transform -->
<g id="node4" class="node">
<title>transform</title>
<text text-anchor="middle" x="205" y="-211.5" font-family="Fira Code" font-size="10.00" fill="#662506">transform</text>
</g>
<!-- dhexp&#45;&gt;transform -->
<g id="edge12" class="edge">
<title>dhexp&#45;&gt;transform</title>
<path fill="none" stroke="black" d="M205,-267.7C205,-258.46 205,-246.98 205,-237.11"/>
<polygon fill="black" stroke="black" points="205,-232.1 207.25,-237.1 205,-234.6 205,-237.1 205,-237.1 205,-237.1 205,-234.6 202.75,-237.1 205,-232.1 205,-232.1"/>
</g>
<!-- mir -->
<g id="node6" class="node">
<title>mir</title>
<polygon fill="#fec44f" stroke="#fec44f" points="313,-232 259,-232 259,-196 313,-196 313,-232"/>
<text text-anchor="middle" x="286" y="-211.5" font-family="Fira Code" font-size="10.00" fill="#662506">mir</text>
</g>
<!-- transform&#45;&gt;mir -->
<g id="edge3" class="edge">
<title>transform&#45;&gt;mir</title>
<path fill="none" stroke="#cc4c02" d="M240.75,-214C245.07,-214 249.39,-214 253.71,-214"/>
<polygon fill="#cc4c02" stroke="#cc4c02" points="258.78,-214 253.78,-216.25 256.28,-214 253.78,-214 253.78,-214 253.78,-214 256.28,-214 253.78,-211.75 258.78,-214 258.78,-214"/>
</g>
<!-- linearize -->
<g id="node5" class="node">
<title>linearize</title>
<text text-anchor="middle" x="367" y="-211.5" font-family="Fira Code" font-size="10.00" fill="#662506">linearize</text>
</g>
<!-- anf -->
<g id="node7" class="node">
<title>anf</title>
<polygon fill="#fec44f" stroke="#fec44f" points="475,-232 421,-232 421,-196 475,-196 475,-232"/>
<text text-anchor="middle" x="448" y="-211.5" font-family="Fira Code" font-size="10.00" fill="#662506">anf</text>
</g>
<!-- linearize&#45;&gt;anf -->
<g id="edge5" class="edge">
<title>linearize&#45;&gt;anf</title>
<path fill="none" stroke="#cc4c02" d="M402.75,-214C407.07,-214 411.39,-214 415.71,-214"/>
<polygon fill="#cc4c02" stroke="#cc4c02" points="420.78,-214 415.78,-216.25 418.28,-214 415.78,-214 415.78,-214 415.78,-214 418.28,-214 415.78,-211.75 420.78,-214 420.78,-214"/>
</g>
<!-- mir&#45;&gt;linearize -->
<g id="edge4" class="edge">
<title>mir&#45;&gt;linearize</title>
<path fill="none" stroke="#cc4c02" d="M313.21,-214C317.54,-214 321.87,-214 326.2,-214"/>
<polygon fill="#cc4c02" stroke="#cc4c02" points="331.28,-214 326.28,-216.25 328.78,-214 326.28,-214 326.28,-214 326.28,-214 328.78,-214 326.28,-211.75 331.28,-214 331.28,-214"/>
</g>
<!-- anf&#45;&gt;anf -->
<g id="edge6" class="edge">
<title>anf&#45;&gt;anf</title>
<path fill="none" stroke="#cc4c02" d="M475.24,-227.49C485.02,-227.78 493,-223.28 493,-214 493,-206.46 487.73,-202.08 480.51,-200.85"/>
<polygon fill="#cc4c02" stroke="#cc4c02" points="475.24,-200.51 480.38,-198.59 477.74,-200.67 480.23,-200.84 480.23,-200.84 480.23,-200.84 477.74,-200.67 480.08,-203.08 475.24,-200.51 475.24,-200.51"/>
</g>
<!-- codegen -->
<g id="node8" class="node">
<title>codegen</title>
<text text-anchor="middle" x="199" y="-132.5" font-family="Fira Code" font-size="10.00" fill="#662506">codegen</text>
</g>
<!-- anf&#45;&gt;codegen -->
<g id="edge11" class="edge">
<title>anf&#45;&gt;codegen</title>
<path fill="none" stroke="#cc4c02" d="M438.75,-195.7C432.57,-186.02 423.47,-174.76 412,-169 377.41,-151.63 274.89,-172.73 238,-161 233.92,-159.7 229.86,-157.87 225.97,-155.77"/>
<polygon fill="#cc4c02" stroke="#cc4c02" points="221.51,-153.21 226.96,-153.74 223.68,-154.45 225.84,-155.7 225.84,-155.7 225.84,-155.7 223.68,-154.45 224.72,-157.65 221.51,-153.21 221.51,-153.21"/>
</g>
<!-- gir -->
<g id="node11" class="node">
<title>gir</title>
<polygon fill="#fec44f" stroke="#fec44f" points="301,-153 247,-153 247,-117 301,-117 301,-153"/>
<text text-anchor="middle" x="274" y="-132.5" font-family="Fira Code" font-size="10.00" fill="#662506">gir</text>
</g>
<!-- codegen&#45;&gt;gir -->
<g id="edge7" class="edge">
<title>codegen&#45;&gt;gir</title>
<path fill="none" stroke="#cc4c02" d="M228.59,-135C232.92,-135 237.26,-135 241.59,-135"/>
<polygon fill="#cc4c02" stroke="#cc4c02" points="246.68,-135 241.68,-137.25 244.18,-135 241.68,-135 241.68,-135 241.68,-135 244.18,-135 241.68,-132.75 246.68,-135 246.68,-135"/>
</g>
<!-- printer -->
<g id="node9" class="node">
<title>printer</title>
<text text-anchor="middle" x="349" y="-132.5" font-family="Fira Code" font-size="10.00" fill="#662506">printer</text>
</g>
<!-- grain -->
<g id="node12" class="node">
<title>grain</title>
<polygon fill="#fec44f" stroke="#fec44f" points="451,-153 397,-153 397,-117 451,-117 451,-153"/>
<text text-anchor="middle" x="424" y="-132.5" font-family="Fira Code" font-size="10.00" fill="#662506">grain</text>
</g>
<!-- printer&#45;&gt;grain -->
<g id="edge9" class="edge">
<title>printer&#45;&gt;grain</title>
<path fill="none" stroke="#cc4c02" d="M378.59,-135C382.92,-135 387.26,-135 391.59,-135"/>
<polygon fill="#cc4c02" stroke="#cc4c02" points="396.68,-135 391.68,-137.25 394.18,-135 391.68,-135 391.68,-135 391.68,-135 394.18,-135 391.68,-132.75 396.68,-135 396.68,-135"/>
</g>
<!-- grainc -->
<g id="node10" class="node">
<title>grainc</title>
<text text-anchor="middle" x="496" y="-132.5" font-family="Fira Code" font-size="10.00" fill="#662506">grainc</text>
</g>
<!-- wasm -->
<g id="node13" class="node">
<title>wasm</title>
<polygon fill="#bfd3e6" stroke="#bfd3e6" points="523,-55 469,-55 469,-19 523,-19 523,-55"/>
<text text-anchor="middle" x="496" y="-34.5" font-family="Fira Code" font-size="10.00">wasm</text>
</g>
<!-- grainc&#45;&gt;wasm -->
<g id="edge13" class="edge">
<title>grainc&#45;&gt;wasm</title>
<path fill="none" stroke="black" d="M496,-116.84C496,-101 496,-77.4 496,-60.15"/>
<polygon fill="black" stroke="black" points="496,-55.01 498.25,-60.01 496,-57.51 496,-60.01 496,-60.01 496,-60.01 496,-57.51 493.75,-60.01 496,-55.01 496,-55.01"/>
</g>
<!-- gir&#45;&gt;printer -->
<g id="edge8" class="edge">
<title>gir&#45;&gt;printer</title>
<path fill="none" stroke="#cc4c02" d="M301.25,-135C305.54,-135 309.83,-135 314.12,-135"/>
<polygon fill="#cc4c02" stroke="#cc4c02" points="319.15,-135 314.15,-137.25 316.65,-135 314.15,-135 314.15,-135 314.15,-135 316.65,-135 314.15,-132.75 319.15,-135 319.15,-135"/>
</g>
<!-- grain&#45;&gt;grainc -->
<g id="edge10" class="edge">
<title>grain&#45;&gt;grainc</title>
<path fill="none" stroke="#cc4c02" d="M451.28,-135C455.38,-135 459.47,-135 463.56,-135"/>
<polygon fill="#cc4c02" stroke="#cc4c02" points="468.75,-135 463.75,-137.25 466.25,-135 463.75,-135 463.75,-135 463.75,-135 466.25,-135 463.75,-132.75 468.75,-135 468.75,-135"/>
</g>
</g>
</svg>
