<?xml version="1.0" encoding="UTF-8" standalone="no"?>
<!DOCTYPE svg PUBLIC "-//W3C//DTD SVG 1.1//EN"
 "http://www.w3.org/Graphics/SVG/1.1/DTD/svg11.dtd">
<!-- Generated by graphviz version 3.0.0 (0)
 -->
<!-- Pages: 1 -->
<svg width="327pt" height="465pt"
 viewBox="0.00 0.00 327.00 465.00" xmlns="http://www.w3.org/2000/svg" xmlns:xlink="http://www.w3.org/1999/xlink">
<g id="graph0" class="graph" transform="scale(1 1) rotate(0) translate(4 461)">
<polygon fill="white" stroke="transparent" points="-4,4 -4,-461 323,-461 323,4 -4,4"/>
<text text-anchor="middle" x="159.5" y="-7" font-family="Fira Code" font-size="10.00" fill="#662506">hole contexts spaghetti stack example</text>
<g id="clust1" class="cluster">
<title>cluster_lam</title>
<path fill="#ffffe5" stroke="#fee391" d="M20,-27C20,-27 184,-27 184,-27 190,-27 196,-33 196,-39 196,-39 196,-320.97 196,-320.97 196,-326.97 190,-332.97 184,-332.97 184,-332.97 20,-332.97 20,-332.97 14,-332.97 8,-326.97 8,-320.97 8,-320.97 8,-39 8,-39 8,-33 14,-27 20,-27"/>
<text text-anchor="middle" x="102" y="-320.97" font-family="Fira Code" font-size="10.00" fill="#662506">fun a { ... }</text>
</g>
<!-- hole90 -->
<g id="node1" class="node">
<title>hole90</title>
<ellipse fill="#fff7bc" stroke="#fec44f" cx="122" cy="-361.99" rx="20.03" ry="20.03"/>
<text text-anchor="start" x="113" y="-360.49" font-family="Fira Code" font-size="10.00" fill="#662506">H</text>
<text text-anchor="start" x="120" y="-360.49" font-family="Fira Code" baseline-shift="sub" font-size="10.00" fill="#662506">90</text>
</g>
<!-- hole67 -->
<g id="node2" class="node">
<title>hole67</title>
<ellipse fill="#fff7bc" stroke="#fec44f" cx="227" cy="-212.96" rx="20.03" ry="20.03"/>
<text text-anchor="start" x="218" y="-211.46" font-family="Fira Code" font-size="10.00" fill="#662506">H</text>
<text text-anchor="start" x="225" y="-211.46" font-family="Fira Code" baseline-shift="sub" font-size="10.00" fill="#662506">67</text>
</g>
<!-- ab -->
<g id="node3" class="node">
<title>ab</title>
<path fill="#fee391" stroke="#fe9929" d="M139,-418.5C139,-418.5 169,-418.5 169,-418.5 175,-418.5 181,-424.5 181,-430.5 181,-430.5 181,-444.5 181,-444.5 181,-450.5 175,-456.5 169,-456.5 169,-456.5 139,-456.5 139,-456.5 133,-456.5 127,-450.5 127,-444.5 127,-444.5 127,-430.5 127,-430.5 127,-424.5 133,-418.5 139,-418.5"/>
<text text-anchor="middle" x="154" y="-444.5" font-family="Fira Code" font-size="10.00" fill="#662506">a</text>
<polyline fill="none" stroke="#fe9929" points="127,-437.5 181,-437.5 "/>
<text text-anchor="middle" x="154" y="-425.5" font-family="Fira Code" font-size="10.00" fill="#662506">b</text>
</g>
<!-- ab&#45;&gt;hole90 -->
<g id="edge2" class="edge">
<title>ab&#45;&gt;hole90</title>
<path fill="none" stroke="#993404" d="M146.09,-418.33C141.76,-408.38 136.35,-395.95 131.76,-385.4"/>
<polygon fill="#993404" stroke="#993404" points="129.71,-380.7 133.77,-384.38 130.71,-382.99 131.7,-385.28 131.7,-385.28 131.7,-385.28 130.71,-382.99 129.64,-386.18 129.71,-380.7 129.71,-380.7"/>
</g>
<!-- c -->
<g id="node4" class="node">
<title>c</title>
<path fill="#fee391" stroke="#fe9929" d="M172,-343.99C172,-343.99 202,-343.99 202,-343.99 208,-343.99 214,-349.99 214,-355.99 214,-355.99 214,-367.99 214,-367.99 214,-373.99 208,-379.99 202,-379.99 202,-379.99 172,-379.99 172,-379.99 166,-379.99 160,-373.99 160,-367.99 160,-367.99 160,-355.99 160,-355.99 160,-349.99 166,-343.99 172,-343.99"/>
<text text-anchor="middle" x="187" y="-359.49" font-family="Fira Code" font-size="10.00" fill="#662506">c</text>
</g>
<!-- ab&#45;&gt;c -->
<g id="edge1" class="edge">
<title>ab&#45;&gt;c</title>
<path fill="none" stroke="#993404" d="M162.16,-418.33C166.66,-408.3 172.29,-395.77 177.05,-385.16"/>
<polygon fill="#993404" stroke="#993404" points="179.16,-380.45 179.17,-385.93 178.14,-382.73 177.12,-385.01 177.12,-385.01 177.12,-385.01 178.14,-382.73 175.06,-384.09 179.16,-380.45 179.16,-380.45"/>
</g>
<!-- lama -->
<g id="node8" class="node">
<title>lama</title>
<path fill="#fee391" stroke="#fe9929" d="M128,-269.47C128,-269.47 158,-269.47 158,-269.47 164,-269.47 170,-275.47 170,-281.47 170,-281.47 170,-293.47 170,-293.47 170,-299.47 164,-305.47 158,-305.47 158,-305.47 128,-305.47 128,-305.47 122,-305.47 116,-299.47 116,-293.47 116,-293.47 116,-281.47 116,-281.47 116,-275.47 122,-269.47 128,-269.47"/>
<text text-anchor="middle" x="143" y="-284.97" font-family="Fira Code" font-size="10.00" fill="#662506">a</text>
</g>
<!-- c&#45;&gt;lama -->
<g id="edge3" class="edge">
<title>c&#45;&gt;lama</title>
<path fill="none" stroke="#993404" d="M176.57,-343.8C170.44,-333.69 162.62,-320.81 156.07,-310.02"/>
<polygon fill="#993404" stroke="#993404" points="153.35,-305.54 157.87,-308.64 154.65,-307.67 155.95,-309.81 155.95,-309.81 155.95,-309.81 154.65,-307.67 154.02,-310.98 153.35,-305.54 153.35,-305.54"/>
</g>
<!-- f -->
<g id="node12" class="node">
<title>f</title>
<path fill="#fee391" stroke="#fe9929" d="M216,-269.47C216,-269.47 246,-269.47 246,-269.47 252,-269.47 258,-275.47 258,-281.47 258,-281.47 258,-293.47 258,-293.47 258,-299.47 252,-305.47 246,-305.47 246,-305.47 216,-305.47 216,-305.47 210,-305.47 204,-299.47 204,-293.47 204,-293.47 204,-281.47 204,-281.47 204,-275.47 210,-269.47 216,-269.47"/>
<text text-anchor="middle" x="231" y="-284.97" font-family="Fira Code" font-size="10.00" fill="#662506">f</text>
</g>
<!-- c&#45;&gt;f -->
<g id="edge10" class="edge">
<title>c&#45;&gt;f</title>
<path fill="none" stroke="#993404" d="M197.43,-343.8C203.56,-333.69 211.38,-320.81 217.93,-310.02"/>
<polygon fill="#993404" stroke="#993404" points="220.65,-305.54 219.98,-310.98 219.35,-307.67 218.05,-309.81 218.05,-309.81 218.05,-309.81 219.35,-307.67 216.13,-308.64 220.65,-305.54 220.65,-305.54"/>
</g>
<!-- hole113 -->
<g id="node5" class="node">
<title>hole113</title>
<ellipse fill="#fff7bc" stroke="#fec44f" cx="39" cy="-133.99" rx="22.92" ry="22.92"/>
<text text-anchor="start" x="27.5" y="-132.49" font-family="Fira Code" font-size="10.00" fill="#662506">H</text>
<text text-anchor="start" x="34.5" y="-132.49" font-family="Fira Code" baseline-shift="sub" font-size="10.00" fill="#662506">113</text>
</g>
<!-- hole99 -->
<g id="node6" class="node">
<title>hole99</title>
<ellipse fill="#fff7bc" stroke="#fec44f" cx="96" cy="-55.01" rx="20.03" ry="20.03"/>
<text text-anchor="start" x="87" y="-53.51" font-family="Fira Code" font-size="10.00" fill="#662506">H</text>
<text text-anchor="start" x="94" y="-53.51" font-family="Fira Code" baseline-shift="sub" font-size="10.00" fill="#662506">99</text>
</g>
<!-- holed -->
<g id="node7" class="node">
<title>holed</title>
<ellipse fill="#fff7bc" stroke="#fec44f" cx="98" cy="-133.99" rx="18" ry="18"/>
<text text-anchor="start" x="91.5" y="-132.49" font-family="Fira Code" font-size="10.00" fill="#662506">H</text>
<text text-anchor="start" x="98.5" y="-132.49" font-family="Fira Code" baseline-shift="sub" font-size="10.00" fill="#662506">d</text>
</g>
<!-- lamd -->
<g id="node9" class="node">
<title>lamd</title>
<path fill="#fee391" stroke="#fe9929" d="M98,-194.96C98,-194.96 128,-194.96 128,-194.96 134,-194.96 140,-200.96 140,-206.96 140,-206.96 140,-218.96 140,-218.96 140,-224.96 134,-230.96 128,-230.96 128,-230.96 98,-230.96 98,-230.96 92,-230.96 86,-224.96 86,-218.96 86,-218.96 86,-206.96 86,-206.96 86,-200.96 92,-194.96 98,-194.96"/>
<text text-anchor="middle" x="113" y="-210.46" font-family="Fira Code" font-size="10.00" fill="#662506">d</text>
</g>
<!-- lama&#45;&gt;lamd -->
<g id="edge4" class="edge">
<title>lama&#45;&gt;lamd</title>
<path fill="none" stroke="#993404" d="M135.89,-269.29C131.74,-259.26 126.47,-246.52 122.03,-235.79"/>
<polygon fill="#993404" stroke="#993404" points="120.06,-231.02 124.05,-234.78 121.01,-233.33 121.97,-235.64 121.97,-235.64 121.97,-235.64 121.01,-233.33 119.89,-236.5 120.06,-231.02 120.06,-231.02"/>
</g>
<!-- lamd&#45;&gt;hole113 -->
<g id="edge6" class="edge">
<title>lamd&#45;&gt;hole113</title>
<path fill="none" stroke="#993404" d="M96.58,-194.88C85.23,-183.08 70.1,-167.34 58.2,-154.96"/>
<polygon fill="#993404" stroke="#993404" points="54.62,-151.23 59.7,-153.28 56.35,-153.03 58.08,-154.84 58.08,-154.84 58.08,-154.84 56.35,-153.03 56.46,-156.4 54.62,-151.23 54.62,-151.23"/>
</g>
<!-- lamd&#45;&gt;holed -->
<g id="edge5" class="edge">
<title>lamd&#45;&gt;holed</title>
<path fill="none" stroke="#993404" d="M109.67,-194.88C107.48,-183.64 104.59,-168.83 102.24,-156.75"/>
<polygon fill="#993404" stroke="#993404" points="101.27,-151.76 104.43,-156.23 101.75,-154.21 102.22,-156.66 102.22,-156.66 102.22,-156.66 101.75,-154.21 100.02,-157.1 101.27,-151.76 101.27,-151.76"/>
</g>
<!-- lamf -->
<g id="node10" class="node">
<title>lamf</title>
<path fill="#fee391" stroke="#fe9929" d="M146,-115.99C146,-115.99 176,-115.99 176,-115.99 182,-115.99 188,-121.99 188,-127.99 188,-127.99 188,-139.99 188,-139.99 188,-145.99 182,-151.99 176,-151.99 176,-151.99 146,-151.99 146,-151.99 140,-151.99 134,-145.99 134,-139.99 134,-139.99 134,-127.99 134,-127.99 134,-121.99 140,-115.99 146,-115.99"/>
<text text-anchor="middle" x="161" y="-131.49" font-family="Fira Code" font-size="10.00" fill="#662506">f</text>
</g>
<!-- lamd&#45;&gt;lamf -->
<g id="edge7" class="edge">
<title>lamd&#45;&gt;lamf</title>
<path fill="none" stroke="#993404" d="M123.65,-194.88C130.74,-183.52 140.1,-168.51 147.67,-156.36"/>
<polygon fill="#993404" stroke="#993404" points="150.38,-152.02 149.64,-157.46 149.05,-154.14 147.73,-156.26 147.73,-156.26 147.73,-156.26 149.05,-154.14 145.82,-155.07 150.38,-152.02 150.38,-152.02"/>
</g>
<!-- lamf&#45;&gt;hole99 -->
<g id="edge8" class="edge">
<title>lamf&#45;&gt;hole99</title>
<path fill="none" stroke="#993404" d="M146.57,-115.9C136.36,-103.81 122.65,-87.57 112.08,-75.06"/>
<polygon fill="#993404" stroke="#993404" points="108.63,-70.97 113.57,-73.34 110.24,-72.88 111.85,-74.79 111.85,-74.79 111.85,-74.79 110.24,-72.88 110.14,-76.24 108.63,-70.97 108.63,-70.97"/>
</g>
<!-- lamg -->
<g id="node11" class="node">
<title>lamg</title>
<path fill="#fee391" stroke="#fe9929" d="M146,-37.01C146,-37.01 176,-37.01 176,-37.01 182,-37.01 188,-43.01 188,-49.01 188,-49.01 188,-61.01 188,-61.01 188,-67.01 182,-73.01 176,-73.01 176,-73.01 146,-73.01 146,-73.01 140,-73.01 134,-67.01 134,-61.01 134,-61.01 134,-49.01 134,-49.01 134,-43.01 140,-37.01 146,-37.01"/>
<text text-anchor="middle" x="161" y="-52.51" font-family="Fira Code" font-size="10.00" fill="#662506">g</text>
</g>
<!-- lamf&#45;&gt;lamg -->
<g id="edge9" class="edge">
<title>lamf&#45;&gt;lamg</title>
<path fill="none" stroke="#993404" d="M161,-115.9C161,-104.84 161,-90.32 161,-78.35"/>
<polygon fill="#993404" stroke="#993404" points="161,-73.05 163.25,-78.05 161,-75.55 161,-78.05 161,-78.05 161,-78.05 161,-75.55 158.75,-78.05 161,-73.05 161,-73.05"/>
</g>
<!-- f&#45;&gt;hole67 -->
<g id="edge11" class="edge">
<title>f&#45;&gt;hole67</title>
<path fill="none" stroke="#993404" d="M230.05,-269.29C229.54,-260.02 228.9,-248.42 228.34,-238.24"/>
<polygon fill="#993404" stroke="#993404" points="228.05,-233.06 230.58,-237.93 228.19,-235.56 228.33,-238.05 228.33,-238.05 228.33,-238.05 228.19,-235.56 226.08,-238.18 228.05,-233.06 228.05,-233.06"/>
</g>
<!-- g -->
<g id="node13" class="node">
<title>g</title>
<path fill="#fee391" stroke="#fe9929" d="M277,-194.96C277,-194.96 307,-194.96 307,-194.96 313,-194.96 319,-200.96 319,-206.96 319,-206.96 319,-218.96 319,-218.96 319,-224.96 313,-230.96 307,-230.96 307,-230.96 277,-230.96 277,-230.96 271,-230.96 265,-224.96 265,-218.96 265,-218.96 265,-206.96 265,-206.96 265,-200.96 271,-194.96 277,-194.96"/>
<text text-anchor="middle" x="292" y="-210.46" font-family="Fira Code" font-size="10.00" fill="#662506">g</text>
</g>
<!-- f&#45;&gt;g -->
<g id="edge12" class="edge">
<title>f&#45;&gt;g</title>
<path fill="none" stroke="#993404" d="M245.46,-269.29C254.12,-258.99 265.19,-245.83 274.36,-234.93"/>
<polygon fill="#993404" stroke="#993404" points="277.65,-231.02 276.15,-236.3 276.04,-232.93 274.43,-234.85 274.43,-234.85 274.43,-234.85 276.04,-232.93 272.71,-233.4 277.65,-231.02 277.65,-231.02"/>
</g>
</g>
</svg>
